# xmcd
#
# Track frame offsets:
#	150
#	10740
#	24414
#	33328
#	45051
#	57790
#	70951
#	79909
#	94355
#	114875
#	131630
#	143029
#
# Disc length: 2044 seconds
#
# Revision: 480864277
# Processed by: cddbd v1.5.2PL0 Copyright (c) Steve Scherf et al.
# Submitted via: EZCDAudioConverter 2.1.5.1
#
DISCID=9007fa0c
DTITLE=George Jones and The Smoky Mountain Boys - George Jones and the Smoky Mount
DTITLE=ain Boys
DYEAR=2017
DGENRE=Country
TTITLE0=George Jones and The Smoky Mountain Boys - Low and Lonely
TTITLE1=George Jones and The Smoky Mountain Boys - Blue Eyes Crying in the Rain
TTITLE2=George Jones and The Smoky Mountain Boys - Branded Wherever I Go
TTITLE3=George Jones and The Smoky Mountain Boys - We Live in Two Different Worl
TTITLE3=ds
TTITLE4=George Jones and The Smoky Mountain Boys - Beneath That Lonely Mound of 
TTITLE4=Clay
TTITLE5=George Jones and The Smoky Mountain Boys - The Precious Jewel
TTITLE6=George Jones and The Smoky Mountain Boys - Wabash Cannonball
TTITLE7=George Jones and The Smoky Mountain Boys - The Great Speckled Bird
TTITLE8=George Jones and The Smoky Mountain Boys - Don't Make Me Go to Bed and I
TTITLE8='ll Be Good
TTITLE9=George Jones and The Smoky Mountain Boys - The Great Judgement Morning
TTITLE10=George Jones and The Smoky Mountain Boys - Wreck on the Highway
TTITLE11=Smoky Mountain Boys/George Jones - Night Train to Memphis
EXTD=
EXTT0=
EXTT1=
EXTT2=
EXTT3=
EXTT4=
EXTT5=
EXTT6=
EXTT7=
EXTT8=
EXTT9=
EXTT10=
EXTT11=
PLAYORDER=
